<svg width="575" height="312" viewBox="0 0 575 312" fill="none" xmlns="http://www.w3.org/2000/svg">
<g clip-path="url(#clip0_0_3)">
<path d="M575 0H0V312H575V0Z" fill="white"/>
<path d="M217.11 11.17C217.11 11.17 216.993 12.8933 216.76 16.34C216.52 19.7867 216.15 23.3333 215.65 26.98C215.143 30.62 214.683 34.15 214.27 37.57C213.87 40.9833 213.387 44.77 212.82 48.93C212.247 53.09 211.743 57.7533 211.31 62.92C210.883 68.08 210.283 73.7967 209.51 80.07C208.743 86.3433 207.91 93.2967 207.01 100.93C206.103 108.563 205.073 116.127 203.92 123.62C202.76 131.107 201.55 138.647 200.29 146.24C199.037 153.827 197.563 161.927 195.87 170.54C194.177 179.153 192.59 187.39 191.11 195.25C189.63 203.11 187.993 210.747 186.2 218.16C184.413 225.573 182.66 232.95 180.94 240.29C179.227 247.63 177.62 254.307 176.12 260.32C174.627 266.327 173.273 271.663 172.06 276.33C170.847 280.997 169.89 284.88 169.19 287.98C168.49 291.08 167.963 293.533 167.61 295.34C167.263 297.147 167.243 298.703 167.55 300.01C167.863 301.31 167.97 302.103 167.87 302.39C167.77 302.677 167.633 302.943 167.46 303.19C167.293 303.443 167.1 303.673 166.88 303.88C166.66 304.087 166.417 304.26 166.15 304.4C165.883 304.547 165.603 304.66 165.31 304.74C165.017 304.813 164.72 304.853 164.42 304.86C164.12 304.867 163.82 304.837 163.52 304.77C163.227 304.703 162.947 304.603 162.68 304.47C162.407 304.33 162.157 304.163 161.93 303.97C161.697 303.77 161.493 303.55 161.32 303.31C161.14 303.063 160.993 302.8 160.88 302.52C160.773 302.233 160.697 301.943 160.65 301.65C160.61 301.35 160.607 301.05 160.64 300.75C160.667 300.443 161.203 299.02 162.25 296.48C163.29 293.94 164.17 291.053 164.89 287.82C165.61 284.58 166.34 280.817 167.08 276.53C167.82 272.25 168.553 267.293 169.28 261.66C170.007 256.027 170.823 249.14 171.73 241C172.637 232.853 173.577 224.74 174.55 216.66C175.53 208.587 176.423 200.07 177.23 191.11C178.037 182.157 179 173.26 180.12 164.42C181.247 155.587 182.53 146.98 183.97 138.6C185.417 130.22 186.833 122.523 188.22 115.51C189.607 108.49 191.273 101.263 193.22 93.83C195.167 86.3967 197.233 79.6367 199.42 73.55C201.607 67.4633 203.947 61.8533 206.44 56.72C208.933 51.5867 211.7 46.9233 214.74 42.73C217.78 38.5367 220.937 34.8467 224.21 31.66C227.49 28.48 230.833 25.8 234.24 23.62C237.64 21.4467 241.623 19.3167 246.19 17.23C250.75 15.1433 255.303 13.5433 259.85 12.43C264.39 11.33 269.073 10.4533 273.9 9.8C278.727 9.14667 283.94 8.87 289.54 8.97C295.14 9.07667 300.337 9.64333 305.13 10.67C309.917 11.69 314.323 13.01 318.35 14.63C322.37 16.25 326.027 17.9967 329.32 19.87C332.607 21.7433 335.57 23.7867 338.21 26C340.843 28.2133 343.157 30.82 345.15 33.82C347.143 36.82 348.847 39.8367 350.26 42.87C351.673 45.9033 352.79 48.98 353.61 52.1C354.43 55.2133 354.92 58.55 355.08 62.11C355.24 65.67 354.953 69.05 354.22 72.25C353.487 75.45 352.07 79.1167 349.97 83.25C347.87 87.39 344.997 91.7167 341.35 96.23C337.71 100.737 333.077 105.5 327.45 110.52C321.817 115.54 315.77 120.28 309.31 124.74C302.85 129.193 295.55 133.717 287.41 138.31C279.263 142.903 270.173 147.337 260.14 151.61C250.1 155.883 238.243 160.37 224.57 165.07C210.897 169.763 197.313 174.07 183.82 177.99C170.32 181.903 157.343 185.46 144.89 188.66C132.437 191.86 120.033 195.19 107.68 198.65C95.3267 202.11 84.23 205.34 74.39 208.34C64.55 211.34 55.8167 214.053 48.19 216.48C40.5567 218.907 34.3567 220.92 29.59 222.52C24.8233 224.12 21.37 225.393 19.23 226.34C17.0833 227.28 15.75 227.993 15.23 228.48C14.7033 228.96 14.3133 229.233 14.06 229.3C13.8067 229.367 13.55 229.4 13.29 229.4C13.03 229.407 12.7733 229.38 12.52 229.32C12.26 229.26 12.0133 229.17 11.78 229.05C11.5467 228.93 11.3333 228.787 11.14 228.62C10.94 228.447 10.7633 228.253 10.61 228.04C10.4633 227.827 10.34 227.597 10.24 227.35C10.1467 227.11 10.0833 226.86 10.05 226.6C10.01 226.34 10.0067 226.08 10.04 225.82C10.0667 225.56 10.1233 225.307 10.21 225.06C10.3033 224.813 10.4233 224.583 10.57 224.37C10.7167 224.15 10.8867 223.953 11.08 223.78C11.2733 223.6 11.4833 223.45 11.71 223.33C11.9433 223.203 13.1267 222.983 15.26 222.67C17.3933 222.363 20.47 221.907 24.49 221.3C28.5033 220.7 33.87 219.897 40.59 218.89C47.31 217.877 55.4567 216.683 65.03 215.31C74.6033 213.937 86.03 212.387 99.31 210.66C112.59 208.94 126.753 207.237 141.8 205.55C156.847 203.863 173.507 201.993 191.78 199.94C210.047 197.887 228.623 195.85 247.51 193.83C266.397 191.817 286.08 189.71 306.56 187.51C327.047 185.317 346.24 183.18 364.14 181.1C382.033 179.013 399.287 176.957 415.9 174.93C432.513 172.897 447.317 170.97 460.31 169.15C473.297 167.33 485.327 165.553 496.4 163.82C507.473 162.093 516.873 160.387 524.6 158.7C532.327 157.02 538.473 155.447 543.04 153.98C547.607 152.513 551.13 151.273 553.61 150.26C556.097 149.253 557.877 148.083 558.95 146.75C560.03 145.417 560.07 144.1 559.07 142.8C558.063 141.507 556.267 139.673 553.68 137.3C551.087 134.933 548.733 133.16 546.62 131.98C544.507 130.8 541.767 129.44 538.4 127.9C535.04 126.353 531.443 124.96 527.61 123.72C523.777 122.473 519.267 121.387 514.08 120.46C508.893 119.533 503.573 118.767 498.12 118.16C492.667 117.553 486.31 117.113 479.05 116.84C471.79 116.567 464.43 116.557 456.97 116.81C449.51 117.063 442.11 117.623 434.77 118.49C427.43 119.35 420.19 120.343 413.05 121.47C405.91 122.597 398.953 124.15 392.18 126.13C385.407 128.117 379.543 130.097 374.59 132.07C369.63 134.043 365.377 136.093 361.83 138.22C358.283 140.347 355.307 142.41 352.9 144.41C350.493 146.403 348.79 148.257 347.79 149.97C346.797 151.677 346.13 153.507 345.79 155.46C345.457 157.413 345.597 159.103 346.21 160.53C346.823 161.957 347.89 163.693 349.41 165.74C350.93 167.78 353.303 170.193 356.53 172.98C359.763 175.773 363.293 178.44 367.12 180.98C370.947 183.52 374.917 186.01 379.03 188.45C383.143 190.89 387.303 193.2 391.51 195.38C395.717 197.56 399.693 199.703 403.44 201.81C407.193 203.923 410.637 205.91 413.77 207.77C416.903 209.637 419.567 211.353 421.76 212.92C423.96 214.493 425.823 216.02 427.35 217.5C428.877 218.98 430.07 220.537 430.93 222.17C431.79 223.797 432.423 225.313 432.83 226.72C433.237 228.12 433.207 230.047 432.74 232.5C432.267 234.953 431.113 237.3 429.28 239.54C427.447 241.78 425.343 243.937 422.97 246.01C420.603 248.077 417.483 250.26 413.61 252.56C409.737 254.853 405.573 256.777 401.12 258.33C396.667 259.883 392.053 261.257 387.28 262.45C382.507 263.65 377.173 264.787 371.28 265.86C365.387 266.927 359.423 267.687 353.39 268.14C347.363 268.587 341.487 269.183 335.76 269.93C330.033 270.677 323.99 271.21 317.63 271.53C311.263 271.85 305.68 272.073 300.88 272.2C296.073 272.333 291.86 272.33 288.24 272.19C284.613 272.05 281.567 271.987 279.1 272C276.64 272.013 274.247 271.897 271.92 271.65C269.593 271.403 268.26 271.22 267.92 271.1C267.58 270.987 267.267 270.817 266.98 270.59C266.693 270.37 266.453 270.113 266.26 269.82C266.06 269.52 265.913 269.197 265.82 268.85C265.727 268.497 265.69 268.143 265.71 267.79C265.737 267.43 265.817 267.083 265.95 266.75C266.09 266.417 266.277 266.113 266.51 265.84C266.743 265.567 267.017 265.34 267.33 265.16C267.637 264.98 267.967 264.853 268.32 264.78C268.673 264.707 269.027 264.69 269.38 264.73C269.74 264.77 270.08 264.867 270.4 265.02C270.727 265.173 271.02 265.377 271.28 265.63C271.54 265.877 271.753 266.16 271.92 266.48C272.08 266.8 272.19 267.137 272.25 267.49C272.303 267.85 272.3 268.207 272.24 268.56C272.173 268.913 272.057 269.247 271.89 269.56C271.717 269.88 271.497 270.16 271.23 270.4C270.97 270.647 270.677 270.843 270.35 270.99C270.023 271.137 269.68 271.23 269.32 271.27C268.96 271.303 268.607 271.28 268.26 271.2C267.907 271.12 267.577 270.987 267.27 270.8C266.963 270.607 266.697 270.373 266.47 270.1C266.237 269.827 266.057 269.52 265.93 269.18C265.797 268.847 265.723 268.5 265.71 268.14C265.697 267.78 265.737 267.43 265.83 267.09C265.93 266.743 266.083 266.42 266.29 266.12C266.497 265.827 266.743 265.573 267.03 265.36C267.317 265.147 267.63 264.983 267.97 264.87C268.317 264.757 268.67 264.703 269.03 264.71C269.39 264.71 269.57 264.71 269.57 264.71C269.563 264.71 270.56 264.96 272.56 265.46C274.553 265.967 276.793 266.283 279.28 266.41C281.76 266.537 284.753 266.663 288.26 266.79C291.767 266.91 295.9 266.897 300.66 266.75C305.413 266.597 310.897 266.353 317.11 266.02C323.323 265.68 329.343 265.11 335.17 264.31C340.99 263.517 346.81 262.88 352.63 262.4C358.443 261.92 364.22 261.12 369.96 260C375.7 258.88 380.85 257.7 385.41 256.46C389.977 255.213 394.253 253.843 398.24 252.35C402.22 250.863 405.89 249.043 409.25 246.89C412.603 244.73 415.287 242.607 417.3 240.52C419.307 238.427 421.18 236.157 422.92 233.71C424.66 231.257 425.393 229.017 425.12 226.99C424.84 224.963 424.193 223.263 423.18 221.89C422.16 220.523 420.657 219.077 418.67 217.55C416.69 216.017 414.147 214.34 411.04 212.52C407.933 210.7 404.527 208.767 400.82 206.72C397.113 204.667 393.1 202.543 388.78 200.35C384.46 198.157 380.187 195.843 375.96 193.41C371.727 190.97 367.573 188.437 363.5 185.81C359.427 183.19 355.573 180.353 351.94 177.3C348.307 174.253 345.487 171.39 343.48 168.71C341.473 166.037 340.24 163.47 339.78 161.01C339.313 158.557 339.45 155.99 340.19 153.31C340.923 150.623 342.053 148.293 343.58 146.32C345.107 144.34 347.187 142.267 349.82 140.1C352.453 137.927 355.667 135.71 359.46 133.45C363.26 131.183 367.717 129.03 372.83 126.99C377.943 124.95 383.997 122.903 390.99 120.85C397.983 118.79 405.083 117.18 412.29 116.02C419.503 114.86 426.853 113.827 434.34 112.92C441.827 112.007 449.367 111.4 456.96 111.1C464.553 110.793 472.05 110.747 479.45 110.96C486.85 111.173 493.35 111.547 498.95 112.08C504.543 112.613 510.08 113.313 515.56 114.18C521.04 115.047 525.84 116.06 529.96 117.22C534.087 118.387 537.97 119.677 541.61 121.09C545.243 122.503 548.377 123.847 551.01 125.12C553.643 126.4 556.1 127.907 558.38 129.64C560.667 131.373 562.387 133.067 563.54 134.72C564.687 136.38 565.59 138.087 566.25 139.84C566.91 141.6 567.203 143.287 567.13 144.9C567.05 146.513 566.51 147.997 565.51 149.35C564.503 150.703 563.223 151.773 561.67 152.56C560.123 153.353 558.04 154.257 555.42 155.27C552.8 156.29 549.127 157.557 544.4 159.07C539.673 160.577 533.397 162.183 525.57 163.89C517.737 165.597 508.273 167.317 497.18 169.05C486.08 170.79 474.02 172.573 461 174.4C447.98 176.233 433.157 178.17 416.53 180.21C399.91 182.25 382.643 184.317 364.73 186.41C346.817 188.497 327.62 190.647 307.14 192.86C286.66 195.067 266.98 197.19 248.1 199.23C229.227 201.263 210.66 203.32 192.4 205.4C174.127 207.473 157.487 209.37 142.48 211.09C127.473 212.803 113.347 214.547 100.1 216.32C86.8533 218.087 75.4567 219.687 65.91 221.12C56.37 222.56 48.2533 223.827 41.56 224.92C34.8733 226.013 29.4833 226.93 25.39 227.67C21.3033 228.41 18.4567 228.85 16.85 228.99C15.2433 229.13 14.3133 229.233 14.06 229.3C13.8067 229.367 13.55 229.4 13.29 229.4C13.03 229.407 12.7733 229.38 12.52 229.32C12.26 229.26 12.0133 229.17 11.78 229.05C11.5467 228.93 11.3333 228.787 11.14 228.62C10.94 228.447 10.7633 228.253 10.61 228.04C10.4633 227.827 10.34 227.597 10.24 227.35C10.1467 227.11 10.0833 226.86 10.05 226.6C10.01 226.34 10.0067 226.08 10.04 225.82C10.0667 225.56 10.1233 225.307 10.21 225.06C10.3033 224.813 10.4233 224.583 10.57 224.37C10.7167 224.15 10.8867 223.953 11.08 223.78C11.2733 223.6 11.4833 223.45 11.71 223.33C11.9433 223.203 12.36 223.01 12.96 222.75C13.56 222.49 15.01 221.957 17.31 221.15C19.6167 220.343 23.1667 219.137 27.96 217.53C32.7533 215.917 38.9733 213.893 46.62 211.46C54.2733 209.033 63.04 206.313 72.92 203.3C82.7933 200.287 93.9267 197.047 106.32 193.58C118.713 190.107 131.11 186.777 143.51 183.59C155.91 180.41 168.817 176.873 182.23 172.98C195.643 169.093 209.13 164.823 222.69 160.17C236.25 155.517 247.96 151.093 257.82 146.9C267.687 142.713 276.623 138.367 284.63 133.86C292.637 129.353 299.787 124.937 306.08 120.61C312.373 116.283 318.237 111.71 323.67 106.89C329.103 102.077 333.543 97.5633 336.99 93.35C340.437 89.1433 343.137 85.1667 345.09 81.42C347.043 77.6667 348.363 74.4267 349.05 71.7C349.737 68.9667 350.023 66.01 349.91 62.83C349.803 59.65 349.393 56.6533 348.68 53.84C347.967 51.02 346.963 48.2067 345.67 45.4C344.377 42.5867 342.897 39.8633 341.23 37.23C339.563 34.6033 337.547 32.28 335.18 30.26C332.813 28.2467 330.09 26.3533 327.01 24.58C323.937 22.8133 320.53 21.1633 316.79 19.63C313.05 18.0967 308.953 16.8367 304.5 15.85C300.047 14.87 295.157 14.32 289.83 14.2C284.497 14.08 279.507 14.3333 274.86 14.96C270.213 15.58 265.773 16.3933 261.54 17.4C257.313 18.4 253.027 19.8867 248.68 21.86C244.333 23.8333 240.597 25.8 237.47 27.76C234.35 29.72 231.253 32.18 228.18 35.14C225.107 38.0933 222.133 41.5333 219.26 45.46C216.387 49.3867 213.747 53.83 211.34 58.79C208.933 63.75 206.663 69.2 204.53 75.14C202.403 81.0733 200.387 87.7033 198.48 95.03C196.573 102.363 194.94 109.517 193.58 116.49C192.227 123.463 190.847 131.103 189.44 139.41C188.033 147.71 186.793 156.247 185.72 165.02C184.64 173.787 183.723 182.68 182.97 191.7C182.21 200.72 181.38 209.26 180.48 217.32C179.58 225.38 178.727 233.5 177.92 241.68C177.113 249.86 176.41 256.813 175.81 262.54C175.217 268.26 174.633 273.317 174.06 277.71C173.493 282.103 172.933 286.127 172.38 289.78C171.82 293.427 170.953 296.37 169.78 298.61C168.607 300.843 167.97 302.103 167.87 302.39C167.77 302.677 167.633 302.943 167.46 303.19C167.293 303.443 167.1 303.673 166.88 303.88C166.66 304.087 166.417 304.26 166.15 304.4C165.883 304.547 165.603 304.66 165.31 304.74C165.017 304.813 164.72 304.853 164.42 304.86C164.12 304.867 163.82 304.837 163.52 304.77C163.227 304.703 162.947 304.603 162.68 304.47C162.407 304.33 162.157 304.163 161.93 303.97C161.697 303.77 161.493 303.55 161.32 303.31C161.14 303.063 160.993 302.8 160.88 302.52C160.773 302.24 160.697 301.95 160.65 301.65C160.61 301.35 160.607 301.05 160.64 300.75C160.667 300.443 160.75 299.633 160.89 298.32C161.03 297 161.417 295.53 162.05 293.91C162.69 292.29 163.363 289.9 164.07 286.74C164.783 283.587 165.747 279.683 166.96 275.03C168.167 270.383 169.513 265.067 171 259.08C172.493 253.093 174.097 246.423 175.81 239.07C177.53 231.717 179.273 224.377 181.04 217.05C182.813 209.723 184.44 202.123 185.92 194.25C187.4 186.377 188.977 178.16 190.65 169.6C192.33 161.033 193.793 152.967 195.04 145.4C196.293 137.827 197.487 130.327 198.62 122.9C199.76 115.467 200.777 107.93 201.67 100.29C202.557 92.65 203.37 85.73 204.11 79.53C204.857 73.3233 205.437 67.59 205.85 62.33C206.27 57.07 206.743 52.3767 207.27 48.25C207.803 44.1233 208.253 40.3333 208.62 36.88C208.987 33.4267 209.383 29.9467 209.81 26.44C210.237 22.9333 210.523 19.4533 210.67 16C210.817 12.5533 210.91 10.7067 210.95 10.46C210.997 10.2133 211.07 9.97667 211.17 9.75C211.27 9.51667 211.397 9.3 211.55 9.1C211.703 8.90667 211.88 8.73 212.08 8.57C212.28 8.41667 212.493 8.28667 212.72 8.18C212.947 8.08 213.183 8.00667 213.43 7.96C213.677 7.91333 213.923 7.89667 214.17 7.91C214.417 7.92333 214.66 7.96667 214.9 8.04C215.14 8.11333 215.37 8.21333 215.59 8.34C215.803 8.47333 216 8.62667 216.18 8.8C216.36 8.98 216.513 9.17667 216.64 9.39C216.773 9.60333 216.877 9.83 216.95 10.07C217.03 10.31 217.077 10.5533 217.09 10.8C217.103 11.0467 217.11 11.17 217.11 11.17Z" fill="#1E1E1E"/>
</g>
<defs>
<clipPath id="clip0_0_3">
<rect width="575" height="312" fill="white"/>
</clipPath>
</defs>
</svg>
